<svg width="20" height="20" viewBox="0 0 20 20" fill="none" xmlns="http://www.w3.org/2000/svg">
<path fill-rule="evenodd" clip-rule="evenodd" d="M10.1329 5.14771V5.69939L9.65869 5.42277L10.1329 5.14771Z" fill="white"/>
<path fill-rule="evenodd" clip-rule="evenodd" d="M6.87318 16.7439C7.05568 16.7258 7.23518 16.6692 7.39916 16.5739L8.60389 15.875L8.60369 15.9279C8.60335 16.0076 8.62467 16.0721 8.66248 16.1211C8.70024 16.1701 8.75336 16.2021 8.81422 16.2188C8.93537 16.2519 9.08876 16.2245 9.22375 16.1465L9.3781 16.0575L11.0786 17.068L7.39673 19.195C7.16114 19.331 6.8667 19.1609 6.8667 18.8887V17.5085L6.87124 17.506L6.87318 16.7439ZM14.0371 1.45505L13.9663 7.93246L12.2428 6.93469L12.2661 4.25303C12.2683 4.00969 12.005 3.85636 11.7945 3.97843L9.0927 5.54546C8.81683 5.70541 8.64667 5.99973 8.64522 6.3186L8.62287 11.2592L7.2631 12.0465C7.14436 12.1152 7.0146 12.1562 6.88262 12.1697L6.8979 5.35446C6.89865 5.01648 7.07922 4.70431 7.37173 4.53526L8.03702 4.15106L13.3861 1.06088C13.6418 0.913189 13.9526 1.06108 14.0195 1.32763L14.0197 1.32831C14.0313 1.36823 14.0376 1.4104 14.0371 1.45505Z" fill="#7763AE"/>
<path fill-rule="evenodd" clip-rule="evenodd" d="M14.4425 18.3501C14.4425 18.3501 14.4425 18.3501 14.4425 18.3501C14.4432 18.3492 14.4439 18.3484 14.4446 18.3476C14.4439 18.3484 14.4432 18.3493 14.4425 18.3501ZM14.651 18.2328L14.5698 18.2797V18.2784L14.5698 18.2785L14.4855 18.3259C14.5224 18.2712 14.5464 18.2082 14.5618 18.1461C14.5663 18.1279 14.5701 18.1097 14.5732 18.0918L14.5735 18.0903L14.6878 11.262C14.6952 10.8214 14.4632 10.4115 14.0817 10.1911L8.80078 7.13199L8.80477 6.37481C8.80637 6.06806 8.97028 5.78516 9.23553 5.63142L9.47632 5.4917L15.9423 9.23548C16.2565 9.41696 16.3402 9.75521 16.3339 10.127V16.8705C16.3299 17.1149 16.1979 17.3392 15.9864 17.4614L14.6553 18.2304L14.651 18.2328Z" fill="#32C9D3"/>
<path fill-rule="evenodd" clip-rule="evenodd" d="M3.23671 6.28485L4.72355 7.1431L4.71856 7.23642L2.95801 8.2531L2.99337 6.29548C3.06155 6.24786 3.15471 6.2375 3.23671 6.28485Z" fill="#32C9D3"/>
<path fill-rule="evenodd" clip-rule="evenodd" d="M12.0901 11.4179L7.37547 14.1718L8.50633 13.5116L12.0901 11.4179ZM0.218904 10.0474L4.84065 7.35168L4.83595 9.38406L3.56648 10.1439L3.56634 10.144C3.36922 10.2579 3.36882 10.5426 3.56554 10.6573L6.28768 12.2422C6.59518 12.4213 6.97486 12.4218 7.28282 12.2436L10.3805 10.4522L12.0512 11.418L7.3656 14.1549C6.98407 14.3775 6.51257 14.3786 6.13008 14.1577L0.218829 10.744C0.106958 10.6795 0.0391805 10.5444 0.03401 10.4043C0.0288583 10.2648 0.0859943 10.1242 0.218833 10.0475L0.218904 10.0474Z" fill="white"/>
<path d="M12.309 11.564L12.263 11.5317L7.34563 14.3681C6.97662 14.5817 6.522 14.582 6.15266 14.3693L0.27159 10.9829C0.232339 10.9595 0.0138857 10.8186 0 10.5805V12.472C0 12.7452 0.146291 12.9975 0.383222 13.1331L6.10652 16.4087C6.5045 16.6364 6.99356 16.6351 7.39012 16.4048L12.5951 13.3924L12.6041 12.1238C12.5978 11.9011 12.4816 11.6918 12.309 11.564Z" fill="#C6C6C6"/>
<path fill-rule="evenodd" clip-rule="evenodd" d="M12.5384 15.0072C12.5372 15.1587 12.4325 15.2736 12.3031 15.3066L10.9902 14.5483L12.5506 13.6251L12.5384 15.0072Z" fill="#32C9D3"/>
<path fill-rule="evenodd" clip-rule="evenodd" d="M3.71607 10.1882L4.83549 9.5433V11.197L3.71512 10.5686C3.62793 10.5178 3.58726 10.4466 3.5874 10.3782C3.58755 10.3098 3.62858 10.2388 3.71607 10.1882Z" fill="#C6C6C6"/>
<path fill-rule="evenodd" clip-rule="evenodd" d="M1.47607 3.00939L1.52797 2.97982L2.88897 2.19429C3.15659 2.0398 3.48622 2.03969 3.75394 2.19419L5.56422 3.24321L5.30149 3.39483C5.01951 3.55762 4.84541 3.8584 4.84485 4.1842L4.84329 4.86155L1.73549 3.06582L1.7354 3.06577C1.64065 3.01162 1.54987 3.00205 1.47607 3.00939Z" fill="#32C9D3"/>
<path fill-rule="evenodd" clip-rule="evenodd" d="M6.78986 19.2124C6.78527 19.2066 6.78066 19.2005 6.7761 19.194C6.78066 19.2005 6.78526 19.2066 6.78985 19.2124C6.78986 19.2124 6.78986 19.2124 6.78986 19.2124ZM6.58857 19.1181L6.69501 19.1796L5.18428 18.3068L6.58857 19.1181ZM6.72849 12.1821C6.72849 12.1821 6.72849 12.1821 6.7285 12.1821L6.7373 5.33876L6.72849 12.1821ZM6.06349 16.5457L4.95513 15.9114L4.95117 17.8681C4.95086 18.0421 5.04348 18.203 5.19407 18.2899L6.70479 19.1626L6.70489 19.1627L6.74898 19.1885C6.70579 19.1193 6.66977 19.0138 6.6762 18.8566L6.67622 18.8562L6.68116 16.7178C6.46769 16.7128 6.25524 16.6554 6.06349 16.5457ZM11.1752 0.147141L11.1753 0.147104C11.515 -0.0491173 11.9335 -0.0490005 12.2731 0.14725L13.4782 0.843475L13.4785 0.843611L13.5451 0.883363C13.4975 0.877621 13.4532 0.879757 13.4151 0.885298C13.3744 0.891222 13.3405 0.901057 13.3167 0.90944C13.3049 0.913635 13.2955 0.917479 13.289 0.92031C13.2857 0.921726 13.2832 0.92289 13.2814 0.92372L13.2794 0.924704L13.2788 0.924989L13.2786 0.925106L13.2781 0.925352L7.80382 4.07382L7.27074 4.38041C6.92862 4.57808 6.71774 4.94353 6.71773 5.33876L6.70896 12.1611C6.56966 12.1498 6.43232 12.1077 6.30735 12.035L4.99773 11.2724L5.01456 4.26097C5.01509 3.94913 5.18173 3.66124 5.45163 3.50543L11.1752 0.147141ZM13.2874 0.942566L13.2786 0.925106C13.2786 0.925111 13.2786 0.925126 13.2874 0.942566Z" fill="#442B8C"/>
<path fill-rule="evenodd" clip-rule="evenodd" d="M4.85043 7.04655L3.21511 6.10499C3.05187 6.01072 2.84774 6.12739 2.84588 6.31592L2.82221 8.36038L1.04883 9.38457L1.09541 3.58313C1.10055 3.26168 1.44889 3.06411 1.72715 3.22473L4.85532 5.02815L4.85043 7.04655Z" fill="#74DBE1"/>
<path fill-rule="evenodd" clip-rule="evenodd" d="M14.1528 7.99683L14.1633 6.19928L15.6148 7.06774C15.6003 7.14833 15.5527 7.22353 15.4718 7.2702L14.1528 7.99683Z" fill="#C6C6C6"/>
<path fill-rule="evenodd" clip-rule="evenodd" d="M15.6002 6.83277L14.147 5.99207L14.1694 3.94614L18.9422 6.73103C19.2295 6.89873 19.2288 7.31434 18.941 7.48111L18.9409 7.48116L18.818 7.55218C18.7397 7.59742 18.6278 7.66205 18.4935 7.73959C18.2249 7.89467 17.8668 8.10143 17.5085 8.3081C17.1503 8.51477 16.7918 8.72135 16.5227 8.87611C16.3881 8.95348 16.2759 9.0179 16.1972 9.06288C16.1578 9.08537 16.1268 9.10299 16.1056 9.11494C16.0958 9.12048 16.0881 9.12478 16.0827 9.12777L14.351 8.12815L15.5996 7.41247C15.8228 7.28393 15.8232 6.96186 15.6002 6.83277Z" fill="white"/>
<path fill-rule="evenodd" clip-rule="evenodd" d="M12.6602 11.7105C12.5964 11.5778 12.4932 11.4647 12.361 11.3885L8.73926 9.27895L8.74765 7.2663L12.7532 9.57435L14.0032 10.3086C14.3445 10.5088 14.5511 10.8761 14.545 11.2703L14.5226 12.6313L14.4364 18.0695C14.4313 18.3926 14.0791 18.591 13.7983 18.4291L8.93937 15.6272L10.7334 14.5915L12.2114 15.4431C12.4314 15.5699 12.7068 15.4132 12.7088 15.1602L12.7334 12.0369C12.7335 12.0239 12.7333 12.0109 12.7327 11.9979C12.7294 11.8972 12.7037 11.7993 12.6602 11.7105Z" fill="#74DBE1"/>
<path fill-rule="evenodd" clip-rule="evenodd" d="M19.2202 7.49084C19.2293 7.47614 19.2374 7.46102 19.2444 7.44547L19.2542 9.22631C19.2542 9.50647 19.0979 9.67315 18.8925 9.79072L16.4698 11.1772V10.0954C16.4747 9.7974 16.4128 9.47012 16.2241 9.26559L19.0128 7.67233L19.013 7.67225C19.1087 7.61972 19.1765 7.56083 19.2202 7.49084Z" fill="#C6C6C6"/>
<path fill-rule="evenodd" clip-rule="evenodd" d="M12.0259 6.81432L10.29 5.80919L10.2958 5.0342L11.8142 4.15355C11.897 4.10552 11.989 4.10614 12.0652 4.14078L12.0259 6.81432Z" fill="#442B8C"/>
<path fill-rule="evenodd" clip-rule="evenodd" d="M9.12305 16.0422C9.04765 16.0908 8.94953 16.1309 8.85013 16.108C8.7816 16.0922 8.74942 16.0293 8.73505 15.9623C8.72801 15.9295 8.72572 15.8976 8.72521 15.8738C8.72496 15.8619 8.72516 15.8521 8.72541 15.8453L8.72542 15.845L8.89104 15.7476L9.22987 15.9569C9.22517 15.9615 9.21953 15.9668 9.21303 15.9727C9.1914 15.9924 9.16044 16.0181 9.12305 16.0422Z" fill="#442B8C"/>
</svg>
